<svg xmlns="http://www.w3.org/2000/svg" xmlns:xlink="http://www.w3.org/1999/xlink" width="1000" zoomAndPan="magnify" viewBox="0 0 750 599.999999" height="800" preserveAspectRatio="xMidYMid meet" version="1.0"><defs><g/><clipPath id="5e8b9f7365"><path d="M 68.746094 12.300781 L 644.144531 12.300781 L 644.144531 587.699219 L 68.746094 587.699219 Z M 68.746094 12.300781 " clip-rule="nonzero"/></clipPath><clipPath id="7512590128"><path d="M 356.445312 12.300781 C 197.550781 12.300781 68.746094 141.109375 68.746094 300 C 68.746094 458.890625 197.550781 587.699219 356.445312 587.699219 C 515.335938 587.699219 644.144531 458.890625 644.144531 300 C 644.144531 141.109375 515.335938 12.300781 356.445312 12.300781 " clip-rule="nonzero"/></clipPath><clipPath id="4ebb347de2"><path d="M 109.46875 109.296875 L 603.71875 109.296875 L 603.71875 320 L 109.46875 320 Z M 109.46875 109.296875 " clip-rule="nonzero"/></clipPath><clipPath id="03a76bc0bc"><path d="M 532.285156 261 L 555 261 L 555 290 L 532.285156 290 Z M 532.285156 261 " clip-rule="nonzero"/></clipPath><clipPath id="9b85c0da61"><path d="M 532.285156 260 L 556 260 L 556 290.789062 L 532.285156 290.789062 Z M 532.285156 260 " clip-rule="nonzero"/></clipPath><clipPath id="d83081f821"><path d="M 565 277 L 577 277 L 577 290.789062 L 565 290.789062 Z M 565 277 " clip-rule="nonzero"/></clipPath><clipPath id="db33e0131d"><path d="M 564 277 L 578 277 L 578 290.789062 L 564 290.789062 Z M 564 277 " clip-rule="nonzero"/></clipPath><clipPath id="0691a61510"><path d="M 542 235.289062 L 589.285156 235.289062 L 589.285156 281 L 542 281 Z M 542 235.289062 " clip-rule="nonzero"/></clipPath><clipPath id="082b4bcdc3"><path d="M 541 235.289062 L 589.285156 235.289062 L 589.285156 281 L 541 281 Z M 541 235.289062 " clip-rule="nonzero"/></clipPath></defs><g fill="#ffffff" fill-opacity="1"><g transform="translate(375.67553, 295.617813)"><g/></g></g><g clip-path="url(#5e8b9f7365)"><g clip-path="url(#7512590128)"><path fill="#002244" d="M 68.746094 12.300781 L 644.144531 12.300781 L 644.144531 587.699219 L 68.746094 587.699219 Z M 68.746094 12.300781 " fill-opacity="1" fill-rule="nonzero"/></g></g><g clip-path="url(#4ebb347de2)"><path fill="#ffffff" d="M 440.960938 267.234375 C 440.972656 267.1875 440.984375 267.125 440.996094 267.078125 C 441.019531 267.089844 441.03125 267.113281 441.058594 267.136719 Z M 434.9375 208.589844 C 434.621094 208.253906 434.285156 207.925781 433.949219 207.628906 C 439.984375 198.632812 445.996094 189.625 452.070312 180.667969 C 452.949219 179.378906 454.046875 177.410156 455.203125 177.277344 C 467.734375 175.941406 473.105469 166.417969 478.988281 155.402344 C 484.253906 163.136719 489.265625 169.460938 493.109375 176.433594 C 496.988281 183.492188 502.496094 187.390625 510.144531 189.0625 C 513.6875 189.832031 517.253906 190.613281 519.386719 194.398438 C 536.386719 224.691406 559.777344 247.851562 595.320312 259.082031 C 586.125 261.414062 551.714844 249.148438 543.257812 241.550781 C 540.957031 248.597656 538.714844 255.425781 536.472656 262.257812 C 536.113281 262.183594 535.738281 262.113281 535.375 262.050781 C 534.171875 253.527344 533.039062 244.988281 531.75 236.488281 C 531.304688 233.566406 532.097656 229.511719 527.351562 229.417969 C 523.363281 229.332031 518.917969 227.515625 516.039062 232.480469 C 514.363281 235.367188 512.21875 237.953125 512.351562 242.847656 C 504.351562 231.90625 510.398438 221.625 509.808594 210.71875 C 499.023438 208.722656 489.121094 200.484375 476.046875 205.894531 C 478.191406 202.816406 480.3125 199.726562 482.46875 196.660156 C 490.085938 185.851562 490.085938 185.851562 481.722656 173.933594 C 472.359375 180.488281 459.746094 183.265625 457.25 197.308594 C 456.492188 201.589844 452.324219 202.265625 449.550781 203.527344 C 446.550781 202.960938 449.707031 199.402344 446.03125 199.511719 C 441.660156 201.21875 439.539062 206.484375 434.9375 208.589844 Z M 447.695312 199.941406 C 449.972656 199.125 451.3125 198.234375 449.40625 195.722656 C 448.660156 196.972656 446.683594 197.175781 447.695312 199.941406 Z M 149.207031 274.328125 C 148.917969 273.980469 148.605469 273.667969 148.277344 273.355469 C 158.832031 262.617188 169.398438 251.902344 179.917969 241.140625 C 183.691406 237.28125 188.871094 238.132812 193.378906 237.507812 C 198.246094 236.824219 201.605469 234.863281 204.691406 231.242188 C 210.5 224.449219 216.65625 217.945312 222.898438 211.054688 C 232.34375 218.59375 239.621094 227.839844 249.921875 234.910156 C 255.1875 228.644531 260.648438 222.644531 265.527344 216.199219 C 270.984375 208.984375 277.5625 203.671875 286.40625 201.375 C 290.757812 200.242188 293.601562 197.621094 295.792969 193.628906 C 300.371094 185.296875 305.636719 177.335938 310.253906 169.015625 C 313.914062 162.414062 317.480469 156.003906 327.507812 155.558594 C 321.808594 144.675781 329.808594 139.664062 335.316406 133.625 C 342.570312 125.664062 349.90625 117.800781 357.628906 109.445312 C 362.003906 118.320312 366.304688 126.207031 369.835938 134.445312 C 374.292969 144.84375 381.101562 152.828125 391.292969 157.820312 C 402.429688 163.253906 409.984375 171.660156 415.042969 183.097656 C 420.03125 194.375 426.5 205.003906 432.238281 215.949219 C 433.394531 218.148438 434.898438 219.90625 437.09375 221 C 451.492188 228.152344 461.578125 239.925781 471.3125 252.226562 C 480.648438 264.011719 490.398438 275.472656 500.035156 287.050781 C 499.351562 287.050781 498.652344 287.0625 497.964844 287.0625 C 497.085938 287.0625 496.21875 287.039062 495.351562 287.039062 C 490.757812 283.335938 486.097656 279.691406 481.964844 275.519531 C 474.371094 267.847656 466.191406 263.207031 454.46875 268.089844 C 453.792969 270.683594 452.925781 273.8125 454.648438 277.648438 C 455.550781 279.644531 455.707031 282.011719 455.25 284.695312 C 454.203125 284.574219 453.152344 284.453125 452.082031 284.320312 C 447.480469 273.824219 448.371094 261.582031 439.996094 252.636719 C 438.730469 258.09375 442.238281 262.414062 440.996094 267.066406 C 433.214844 260.5 426.632812 252.636719 417.644531 247.273438 C 413.019531 244.507812 408.863281 241.140625 403.511719 239.671875 C 384.332031 234.40625 368.269531 222.921875 351.253906 213.351562 C 347.410156 211.1875 345.628906 207.015625 343.726562 203.347656 C 340.675781 197.464844 336.410156 194.976562 329.785156 195.554688 C 325.722656 195.914062 321.566406 195.277344 315.734375 195.011719 C 325.890625 184.285156 334.449219 174.617188 343.726562 165.71875 C 348.785156 160.875 356.4375 163.6875 362.847656 161.691406 C 365.496094 150.6875 360.929688 142.476562 352.558594 135.175781 C 346.847656 143.628906 337.207031 148.921875 334.085938 159.371094 C 333.953125 159.804688 333.433594 160.285156 332.976562 160.441406 C 316.902344 166.058594 312.722656 181.859375 304.53125 194.050781 C 298.78125 202.601562 294.492188 212.148438 279.9375 213.433594 C 307.265625 228.515625 334.027344 240.910156 348.808594 266.222656 C 345.121094 265.515625 341.421875 264.816406 337.726562 264.144531 C 326 255.558594 313.253906 248.609375 299.457031 243.738281 C 297.867188 243.171875 295.816406 243.675781 294.035156 244.003906 C 291.433594 244.472656 288.925781 245.46875 286.324219 245.84375 C 276.78125 247.1875 267.769531 249.378906 260.792969 254.992188 L 249.707031 254.753906 C 245.609375 254.765625 241.5625 254.835938 237.730469 254.980469 C 236.175781 255.027344 234.621094 255.101562 233.078125 255.171875 C 237.378906 251.589844 241.464844 247.621094 244.296875 242.054688 C 238.40625 237.339844 232.34375 232.496094 225.65625 227.144531 C 222.957031 235.042969 224.523438 241.910156 228.367188 250.339844 C 217.164062 246.851562 210.980469 251.6875 205.425781 257.710938 C 201.015625 258.335938 196.738281 259.046875 192.605469 259.863281 C 192.328125 258.863281 192.050781 257.855469 191.761719 256.773438 C 188.0625 258.757812 184.59375 260.621094 181.074219 262.507812 C 179.21875 263 177.402344 263.507812 175.605469 264.035156 C 175.304688 261.773438 175.039062 259.695312 174.652344 256.796875 C 165.832031 262.871094 157.519531 268.59375 149.207031 274.328125 Z M 382.910156 190.40625 C 400.320312 212.664062 421.007812 229.945312 448.238281 239.554688 C 448.550781 236.523438 447.296875 235.824219 446.191406 235.273438 C 432.527344 228.527344 424.117188 216.898438 416.464844 204.320312 C 409.945312 193.605469 396.222656 188.183594 382.910156 190.40625 Z M 592.765625 274.078125 C 588.886719 277.769531 584.753906 281.136719 580.402344 284.117188 C 571.667969 290.070312 562.183594 294.625 552.28125 297.8125 C 532.449219 304.1875 511.316406 305.402344 490.554688 303.730469 C 480.15625 302.910156 469.792969 301.300781 459.589844 299.136719 C 454.492188 298.042969 449.429688 296.753906 444.515625 295.335938 L 429.199219 290.539062 L 421.332031 288.074219 C 418.707031 287.242188 416.054688 286.582031 413.417969 285.824219 C 408.125 284.371094 402.847656 282.855469 397.535156 281.449219 C 392.210938 280.101562 386.859375 278.851562 381.523438 277.550781 C 376.171875 276.265625 370.773438 275.230469 365.402344 274.050781 C 322.300781 265.308594 277.890625 261.160156 233.71875 264.480469 C 211.667969 266.261719 189.703125 269.878906 168.496094 276.179688 C 157.917969 279.390625 147.507812 283.132812 137.53125 287.84375 C 132.554688 290.214844 127.664062 292.738281 122.914062 295.503906 C 118.226562 298.355469 113.589844 301.335938 109.457031 304.90625 C 114.265625 302.347656 119.214844 300.195312 124.277344 298.320312 C 129.3125 296.40625 134.410156 294.710938 139.566406 293.207031 C 149.867188 290.226562 160.316406 287.882812 170.832031 286.078125 C 191.871094 282.480469 213.148438 280.90625 234.417969 280.726562 C 276.984375 280.507812 319.421875 285.847656 361.28125 294.265625 C 382.234375 298.390625 403.042969 303.5625 423.683594 309.199219 L 439.585938 313.519531 C 445.140625 314.914062 450.671875 315.957031 456.238281 316.871094 C 467.347656 318.699219 478.578125 319.652344 489.84375 319.78125 C 501.097656 319.867188 512.410156 319.085938 523.542969 317.066406 C 534.664062 315.046875 545.640625 311.859375 555.933594 307.121094 C 566.210938 302.382812 575.8125 296.179688 583.933594 288.492188 C 587.996094 284.65625 591.71875 280.523438 595.042969 276.121094 C 598.320312 271.683594 601.273438 267.054688 603.71875 262.183594 C 600.296875 266.40625 596.695312 270.433594 592.765625 274.078125 Z M 592.765625 274.078125 " fill-opacity="1" fill-rule="nonzero"/></g><g clip-path="url(#03a76bc0bc)"><path fill="#ffbd59" d="M 544.078125 272.894531 C 543.574219 273.601562 543.644531 274.03125 542.527344 274.914062 C 541.410156 275.796875 540.792969 275.546875 539.609375 276.429688 C 538.421875 277.3125 538.695312 277.59375 537.785156 278.449219 C 536.871094 279.308594 536.9375 278.980469 535.957031 279.867188 C 534.976562 280.75 534.75 280.800781 533.859375 281.988281 C 532.972656 283.175781 532.515625 283.957031 532.402344 284.613281 C 532.285156 285.269531 533.128906 284.234375 533.40625 284.613281 C 533.679688 284.992188 533.085938 285.851562 533.496094 286.128906 C 533.90625 286.40625 534.5 285.523438 535.046875 285.726562 C 535.59375 285.925781 535.34375 286.785156 535.683594 286.9375 C 536.027344 287.089844 535.9375 286.15625 536.414062 286.332031 C 536.894531 286.507812 537.054688 287.441406 537.601562 287.644531 C 538.148438 287.847656 538.035156 287.214844 538.605469 287.140625 C 539.175781 287.0625 539.628906 286.683594 539.882812 287.339844 C 540.132812 288 538.96875 289.386719 539.609375 289.765625 C 540.246094 290.144531 541.226562 289.109375 542.4375 288.855469 C 543.644531 288.605469 543.121094 289.941406 544.441406 288.757812 C 545.765625 287.570312 546.402344 285.726562 547.726562 284.109375 C 549.050781 282.492188 548.617188 283.074219 549.734375 282.289062 C 550.851562 281.507812 551.035156 281.457031 552.195312 280.976562 C 553.359375 280.496094 554.636719 281.101562 554.386719 280.371094 C 554.136719 279.636719 552.449219 278.957031 551.195312 278.046875 C 549.9375 277.136719 549.960938 277.945312 549.367188 276.734375 C 548.777344 275.519531 548.777344 274.789062 548.820312 273.199219 C 548.867188 271.605469 549.117188 271.582031 549.550781 270.367188 C 549.984375 269.15625 549.824219 269.507812 550.554688 268.347656 C 551.285156 267.1875 551.625 266.808594 552.46875 265.722656 C 553.3125 264.636719 553.359375 265.015625 553.929688 264.003906 C 554.5 262.992188 554.796875 262.082031 554.75 261.679688 C 554.707031 261.277344 554.296875 261.679688 553.746094 262.386719 C 553.199219 263.09375 553.175781 263.597656 552.5625 264.507812 C 551.945312 265.417969 551.902344 265.34375 551.285156 266.023438 C 550.667969 266.707031 550.917969 266.65625 550.097656 267.238281 C 549.277344 267.816406 549.09375 267.488281 548 268.347656 C 546.90625 269.207031 546.585938 269.738281 545.71875 270.671875 C 544.851562 271.605469 544.945312 271.53125 544.535156 272.085938 C 544.125 272.640625 544.578125 272.1875 544.078125 272.894531 Z M 544.078125 272.894531 " fill-opacity="1" fill-rule="evenodd"/></g><g clip-path="url(#9b85c0da61)"><path stroke-linecap="butt" transform="matrix(0.360988, 0, 0, 0.360508, 525.352298, 124.872965)" fill="none" stroke-linejoin="miter" d="M 51.873824 410.591184 C 50.477916 412.55239 50.672693 413.744283 47.577888 416.193082 C 44.483083 418.641881 42.773365 417.948416 39.494603 420.397215 C 36.20502 422.846013 36.96249 423.626162 34.441197 425.999113 C 31.909084 428.382899 32.093041 427.472726 29.376971 429.93236 C 26.6609 432.381159 26.033282 432.522019 23.566095 435.815979 C 21.109729 439.109938 19.843672 441.277017 19.529863 443.097363 C 19.205233 444.917709 21.542568 442.046329 22.310859 443.097363 C 23.068329 444.148396 21.423538 446.532182 22.559742 447.301495 C 23.695947 448.070808 25.340739 445.622009 26.855678 446.18545 C 28.370618 446.738055 27.678074 449.121841 28.619501 449.544421 C 29.571749 449.967002 29.322866 447.377343 30.643027 447.864935 C 31.97401 448.352528 32.417671 450.942187 33.93261 451.505627 C 35.44755 452.069068 35.133741 450.313734 36.713607 450.107862 C 38.293472 449.891154 39.548708 448.840121 40.252073 450.660467 C 40.944617 452.491648 37.71996 456.338213 39.494603 457.389246 C 41.258426 458.440279 43.974496 455.5689 47.329005 454.864599 C 50.672693 454.171134 49.22268 457.876838 52.880177 454.593714 C 56.548495 451.299755 58.312318 446.18545 61.980636 441.699597 C 65.648954 437.213744 64.447823 438.828218 67.542628 436.650304 C 70.637434 434.483225 71.146021 434.342365 74.359857 433.009612 C 77.584514 431.676859 81.12298 433.356344 80.430436 431.330126 C 79.737892 429.293072 75.063222 427.407714 71.589681 424.883067 C 68.10532 422.358421 68.170246 424.601347 66.525455 421.242375 C 64.891484 417.872568 64.891484 415.84635 65.010515 411.436345 C 65.140367 407.015505 65.832911 406.950492 67.034042 403.580685 C 68.235172 400.221713 67.791511 401.196899 69.815038 397.978787 C 71.838564 394.760675 72.779991 393.709642 75.117327 390.697403 C 77.454662 387.685164 77.584514 388.736197 79.16438 385.92983 C 80.744245 383.123463 81.566641 380.598817 81.436789 379.482771 C 81.317758 378.366726 80.181553 379.482771 78.655793 381.443978 C 77.140853 383.405184 77.075927 384.802949 75.377031 387.327596 C 73.667313 389.852242 73.548282 389.64637 71.838564 391.531728 C 70.128847 393.427922 70.821391 393.287062 68.548981 394.901535 C 66.276572 396.505174 65.767985 395.595001 62.738106 397.978787 C 59.708226 400.362573 58.820905 401.836187 56.418643 404.425846 C 54.016382 407.015505 54.276086 406.809632 53.139881 408.348258 C 52.003676 409.886884 53.258912 408.629978 51.873824 410.591184 Z M 51.873824 410.591184 " stroke="#000000" stroke-width="0.399" stroke-opacity="1" stroke-miterlimit="4"/></g><g clip-path="url(#d83081f821)"><path fill="#ffbd59" d="M 565.773438 278.863281 C 566.789062 280.25 570.078125 282.753906 571.167969 284.203125 C 572.261719 285.65625 570.578125 284.488281 570.136719 284.671875 C 569.699219 284.855469 569.894531 285.054688 569.410156 284.9375 C 568.925781 284.820312 568.714844 284.371094 568.199219 284.203125 C 567.683594 284.039062 567.773438 283.953125 567.347656 284.269531 C 566.925781 284.585938 566.558594 285.171875 566.5 285.472656 C 566.4375 285.773438 566.816406 285.605469 567.105469 285.472656 C 567.394531 285.339844 567.226562 285.054688 567.652344 284.9375 C 568.078125 284.820312 568.484375 284.789062 568.804688 285.003906 C 569.121094 285.222656 568.53125 285.605469 568.925781 285.804688 C 569.320312 286.007812 569.625 285.957031 570.382812 285.804688 C 571.140625 285.65625 571.382812 285.371094 571.957031 285.207031 C 572.535156 285.039062 572.320312 284.605469 572.6875 285.136719 C 573.050781 285.671875 573.308594 286.390625 573.414062 287.339844 C 573.519531 288.292969 573.003906 288.375 573.109375 288.941406 C 573.214844 289.511719 573.566406 289.210938 573.839844 289.609375 C 574.109375 290.011719 573.945312 290.429688 574.203125 290.546875 C 574.460938 290.660156 574.777344 290.511719 574.867188 290.078125 C 574.960938 289.644531 574.761719 289.445312 574.566406 288.808594 C 574.367188 288.175781 573.945312 287.742188 574.082031 287.542969 C 574.21875 287.339844 574.746094 287.675781 575.113281 288.007812 C 575.476562 288.34375 575.261719 288.390625 575.535156 288.875 C 575.808594 289.359375 575.914062 289.742188 576.203125 289.945312 C 576.492188 290.144531 576.824219 290.261719 576.6875 289.675781 C 576.550781 289.09375 576.15625 288.375 575.65625 287.609375 C 575.15625 286.839844 575.140625 287.191406 574.6875 286.605469 C 574.230469 286.023438 574.308594 285.921875 573.839844 285.273438 C 573.367188 284.621094 573.335938 284.539062 572.808594 284.003906 C 572.277344 283.46875 573.140625 284.472656 571.714844 283.136719 C 570.289062 281.800781 568.59375 279.730469 567.105469 278.664062 C 565.621094 277.597656 564.757812 277.480469 565.773438 278.863281 Z M 565.773438 278.863281 " fill-opacity="1" fill-rule="evenodd"/></g><g clip-path="url(#db33e0131d)"><path stroke-linecap="butt" transform="matrix(0.360988, 0, 0, 0.360508, 525.352298, 124.872965)" fill="none" stroke-linejoin="miter" d="M 111.973644 427.147664 C 114.787103 430.994229 123.898383 437.939716 126.917441 441.959646 C 129.94732 445.990412 125.283471 442.75063 124.060698 443.259893 C 122.848746 443.769157 123.389796 444.321762 122.047992 443.9967 C 120.706189 443.671638 120.121855 442.425568 118.693483 441.959646 C 117.265111 441.50456 117.513994 441.266181 116.334506 442.143848 C 115.165838 443.021515 114.148664 444.646824 113.986349 445.481149 C 113.813213 446.315474 114.86285 445.849552 115.663604 445.481149 C 116.464358 445.112746 115.999055 444.321762 117.178544 443.9967 C 118.358032 443.671638 119.483416 443.584955 120.370738 444.180902 C 121.247239 444.787684 119.613268 445.849552 120.706189 446.402157 C 121.799109 446.965598 122.643147 446.824738 124.742421 446.402157 C 126.841694 445.990412 127.512596 445.199429 129.103283 444.744342 C 130.70479 444.27842 130.109635 443.075692 131.126809 444.549305 C 132.133162 446.033754 132.847348 448.027466 133.139515 450.660467 C 133.431682 453.304303 132.00331 453.531846 132.295477 455.102978 C 132.587644 456.684945 133.561534 455.85062 134.319003 456.95583 C 135.065652 458.071875 134.61117 459.231262 135.325356 459.556324 C 136.039542 459.870551 136.916043 459.458806 137.164926 458.256077 C 137.42463 457.053348 136.872759 456.500743 136.331709 454.734574 C 135.779838 452.979241 134.61117 451.776512 134.989905 451.223907 C 135.36864 450.660467 136.829475 451.592311 137.846649 452.513319 C 138.853001 453.445163 138.257846 453.575187 139.015316 454.918776 C 139.772786 456.262365 140.064953 457.324233 140.865707 457.887674 C 141.666461 458.440279 142.586245 458.765341 142.20751 457.140032 C 141.828776 455.525558 140.735855 453.531846 139.350767 451.408109 C 137.96568 449.273536 137.922396 450.248722 136.66716 448.623413 C 135.401103 447.008939 135.617523 446.727219 134.319003 444.928544 C 133.009663 443.119033 132.923095 442.89149 131.46226 441.407041 C 129.990604 439.922592 132.382045 442.707288 128.432381 439.001584 C 124.482717 435.29588 119.786404 429.553122 115.663604 426.595059 C 111.551625 423.636997 109.160184 423.311935 111.973644 427.147664 Z M 111.973644 427.147664 " stroke="#000000" stroke-width="0.265" stroke-opacity="1" stroke-miterlimit="4"/></g><g clip-path="url(#0691a61510)"><path fill="#ffbd59" d="M 584.425781 239.628906 C 583.867188 239.296875 583.539062 239.109375 582.882812 238.632812 C 582.230469 238.15625 582.34375 238.15625 581.804688 237.71875 C 581.265625 237.285156 581.34375 237.222656 580.726562 236.890625 C 580.109375 236.554688 579.957031 236.660156 579.339844 236.390625 C 578.722656 236.121094 578.953125 236.039062 578.261719 235.808594 C 577.566406 235.582031 577.335938 235.539062 576.566406 235.476562 C 575.796875 235.414062 575.796875 235.539062 575.179688 235.558594 C 574.5625 235.582031 574.910156 235.433594 574.101562 235.558594 C 573.292969 235.683594 572.792969 235.808594 571.945312 236.058594 C 571.097656 236.308594 571.367188 236.203125 570.710938 236.554688 C 570.058594 236.910156 569.980469 236.972656 569.324219 237.46875 C 568.671875 237.96875 568.632812 238.074219 568.09375 238.550781 C 567.554688 239.027344 567.746094 238.882812 567.167969 239.378906 C 566.589844 239.878906 566.378906 239.921875 565.78125 240.542969 C 565.183594 241.167969 565.164062 241.292969 564.78125 241.871094 C 564.394531 242.453125 564.664062 242.351562 564.242188 242.871094 C 563.816406 243.390625 563.683594 243.347656 563.085938 243.949219 C 562.488281 244.550781 562.644531 244.574219 561.851562 245.277344 C 561.0625 245.984375 560.851562 245.941406 559.925781 246.773438 C 559.003906 247.605469 559.078125 247.707031 558.15625 248.601562 C 557.230469 249.492188 557.191406 249.453125 556.230469 250.34375 C 555.265625 251.238281 555.132812 251.363281 554.304688 252.171875 C 553.476562 252.984375 553.667969 252.710938 552.917969 253.585938 C 552.167969 254.457031 552.070312 254.707031 551.300781 255.660156 C 550.53125 256.617188 550.453125 256.617188 549.835938 257.40625 C 549.21875 258.195312 549.414062 258.050781 548.835938 258.816406 C 548.257812 259.585938 548.199219 259.542969 547.523438 260.480469 C 546.851562 261.414062 546.734375 261.578125 546.136719 262.554688 C 545.542969 263.53125 545.636719 263.429688 545.136719 264.382812 C 544.636719 265.339844 544.636719 265.296875 544.136719 266.375 C 543.632812 267.457031 543.5 267.683594 543.132812 268.703125 C 542.769531 269.71875 542.921875 269.535156 542.671875 270.445312 C 542.421875 271.359375 542.265625 271.609375 542.132812 272.359375 C 541.996094 273.105469 542.09375 272.9375 542.132812 273.4375 C 542.171875 273.9375 541.84375 274.414062 542.285156 274.351562 C 542.730469 274.289062 543.039062 273.875 543.90625 273.1875 C 544.769531 272.503906 544.828125 272.460938 545.753906 271.609375 C 546.675781 270.757812 546.601562 270.570312 547.601562 269.78125 C 548.601562 268.992188 548.871094 269.179688 549.757812 268.453125 C 550.644531 267.726562 550.546875 267.707031 551.144531 266.875 C 551.742188 266.042969 551.703125 265.753906 552.148438 265.132812 C 552.589844 264.507812 552.417969 265.316406 552.917969 264.382812 C 553.417969 263.449219 553.707031 262.535156 554.148438 261.394531 C 554.59375 260.25 554.9375 259.109375 554.6875 259.816406 C 554.4375 260.519531 553.746094 262.660156 553.148438 264.21875 C 552.550781 265.773438 552.761719 265.296875 552.300781 266.042969 C 551.839844 266.792969 551.839844 266.523438 551.300781 267.207031 C 550.761719 267.894531 550.703125 267.996094 550.144531 268.785156 C 549.585938 269.574219 549.507812 269.367188 549.066406 270.363281 C 548.621094 271.359375 548.601562 271.570312 548.371094 272.773438 C 548.140625 273.976562 548.121094 274.207031 548.140625 275.183594 C 548.160156 276.15625 548.160156 276.179688 548.449219 276.675781 C 548.738281 277.175781 548.699219 276.882812 549.296875 277.175781 C 549.894531 277.464844 550.105469 277.382812 550.835938 277.839844 C 551.570312 278.296875 551.550781 278.441406 552.222656 279.003906 C 552.898438 279.5625 552.78125 279.832031 553.535156 280.082031 C 554.285156 280.332031 554.652344 280.042969 555.226562 280 C 555.804688 279.957031 555.421875 279.917969 555.84375 279.917969 C 556.269531 279.917969 556.421875 280.164062 556.921875 280 C 557.421875 279.832031 557.289062 279.230469 557.847656 279.253906 C 558.40625 279.273438 558.308594 279.917969 559.15625 280.082031 C 560.003906 280.25 560.429688 279.980469 561.238281 279.917969 C 562.046875 279.855469 561.757812 279.769531 562.390625 279.832031 C 563.027344 279.894531 563.105469 280.101562 563.777344 280.164062 C 564.453125 280.226562 564.335938 280.269531 565.089844 280.082031 C 565.839844 279.894531 565.917969 279.875 566.785156 279.417969 C 567.648438 278.960938 567.457031 278.980469 568.554688 278.253906 C 569.652344 277.527344 570.171875 277.425781 571.175781 276.511719 C 572.175781 275.597656 571.847656 275.429688 572.5625 274.601562 C 573.273438 273.769531 573.351562 274 574.023438 273.1875 C 574.699219 272.378906 574.679688 272.191406 575.257812 271.359375 C 575.835938 270.53125 575.757812 270.675781 576.335938 269.867188 C 576.914062 269.054688 577.007812 269.054688 577.566406 268.121094 C 578.125 267.1875 578.089844 267.1875 578.570312 266.128906 C 579.050781 265.070312 579.03125 265.132812 579.492188 263.886719 C 579.957031 262.640625 580.148438 262.203125 580.417969 261.144531 C 580.6875 260.085938 580.417969 260.644531 580.574219 259.648438 C 580.726562 258.652344 580.898438 258.546875 581.035156 257.15625 C 581.167969 255.765625 581.09375 255.453125 581.113281 254.082031 C 581.132812 252.710938 581.132812 252.628906 581.113281 251.675781 C 581.09375 250.71875 581.09375 250.925781 581.035156 250.261719 C 580.976562 249.597656 580.804688 249.765625 580.878906 249.015625 C 580.957031 248.269531 581.074219 248.082031 581.34375 247.273438 C 581.613281 246.460938 581.59375 246.484375 581.960938 245.777344 C 582.324219 245.070312 582.363281 245.113281 582.804688 244.449219 C 583.25 243.785156 583.25 243.617188 583.730469 243.117188 C 584.210938 242.621094 584.078125 242.703125 584.734375 242.453125 C 585.386719 242.203125 585.464844 242.328125 586.351562 242.121094 C 587.234375 241.914062 587.640625 241.894531 588.277344 241.625 C 588.910156 241.355469 588.699219 241.355469 588.890625 241.042969 C 589.085938 240.730469 589.277344 240.625 589.046875 240.378906 C 588.816406 240.128906 588.640625 240.128906 587.96875 240.046875 C 587.292969 239.960938 587.0625 240.066406 586.351562 240.046875 C 585.636719 240.023438 585.597656 240.066406 585.117188 239.960938 C 584.636719 239.859375 584.984375 239.960938 584.425781 239.628906 Z M 584.425781 239.628906 " fill-opacity="0.9843" fill-rule="evenodd"/></g><g clip-path="url(#082b4bcdc3)"><path stroke-linecap="butt" transform="matrix(0.360988, 0, 0, 0.360508, 525.352298, 124.872965)" fill="none" stroke-linejoin="miter" d="M 163.643906 318.316979 C 162.096504 317.395971 161.18754 316.875872 159.369612 315.553954 C 157.562506 314.232036 157.876315 314.232036 156.383017 313.018472 C 154.889719 311.815743 155.106139 311.642377 153.396422 310.721369 C 151.686704 309.789525 151.264685 310.08208 149.554968 309.334438 C 147.84525 308.586796 148.483689 308.359253 146.568372 307.719965 C 144.642235 307.091512 144.003796 306.972323 141.87206 306.798956 C 139.740323 306.62559 139.740323 306.972323 138.030605 307.0265 C 136.320888 307.091512 137.283957 306.679767 135.04401 307.0265 C 132.804064 307.373232 131.418976 307.719965 129.07082 308.41343 C 126.722663 309.106895 127.469312 308.81434 125.651384 309.789525 C 123.844278 310.775546 123.627858 310.948912 121.80993 312.325007 C 120.002824 313.711937 119.894614 314.004493 118.401316 315.326411 C 116.908019 316.648329 117.438247 316.247419 115.83674 317.623514 C 114.235232 319.010444 113.650898 319.129633 111.995286 320.852461 C 110.339673 322.586124 110.285568 322.932856 109.22511 324.536494 C 108.153832 326.150968 108.90048 325.869248 107.731813 327.310355 C 106.552324 328.751462 106.18441 328.632273 104.528798 330.300923 C 102.873185 331.969574 103.306025 332.034586 101.109362 333.984957 C 98.923521 335.946163 98.339187 335.826974 95.774611 338.134912 C 93.220855 340.442851 93.426454 340.724571 90.872699 343.205876 C 88.308122 345.676346 88.199912 345.567992 85.537947 348.038461 C 82.865161 350.519766 82.497247 350.866499 80.203195 353.109425 C 77.909144 355.363187 78.439373 354.60471 76.361741 357.031838 C 74.28411 359.44813 74.013585 360.141595 71.881848 362.785431 C 69.750112 365.440102 69.533692 365.440102 67.823974 367.628852 C 66.114257 369.817601 66.655307 369.416691 65.053799 371.540428 C 63.452291 373.675001 63.289976 373.555812 61.417944 376.156306 C 59.556732 378.745965 59.232102 379.201051 57.57649 381.909899 C 55.931698 384.618748 56.191402 384.337027 54.806314 386.980863 C 53.421227 389.635534 53.421227 389.516345 52.036139 392.506914 C 50.64023 395.508317 50.272317 396.13677 49.255143 398.964808 C 48.24879 401.78201 48.670809 401.272746 47.978265 403.797393 C 47.285721 406.332875 46.852881 407.02634 46.484967 409.106735 C 46.106233 411.176295 46.376758 410.710373 46.484967 412.097304 C 46.593177 413.484234 45.684214 414.806152 46.906986 414.632786 C 48.14058 414.459419 48.995439 413.310868 51.3977 411.403839 C 53.789141 409.507645 53.951456 409.388456 56.516032 407.02634 C 59.069787 404.664224 58.864189 404.144125 61.634364 401.955376 C 64.404539 399.766627 65.151188 400.286726 67.607554 398.271343 C 70.063921 396.255959 69.793396 396.201783 71.449008 393.893844 C 73.104621 391.585905 72.996411 390.784086 74.230005 389.061259 C 75.452778 387.327596 74.976654 389.570522 76.361741 386.980863 C 77.746829 384.391204 78.547583 381.855722 79.770355 378.691788 C 81.003949 375.517018 81.956197 372.353083 81.263653 374.314289 C 80.571109 376.26466 78.655793 382.202455 77.00018 386.525777 C 75.344568 390.838263 75.928901 389.516345 74.652024 391.585905 C 73.375146 393.666301 73.375146 392.918658 71.881848 394.814852 C 70.388551 396.721881 70.226236 397.003602 68.678833 399.192351 C 67.131431 401.3811 66.915011 400.806824 65.692238 403.56985 C 64.458644 406.332875 64.404539 406.917986 63.7661 410.255287 C 63.127661 413.592588 63.073556 414.231876 63.127661 416.940724 C 63.181766 419.638737 63.181766 419.703749 63.98252 421.079844 C 64.783274 422.466775 64.675064 421.65412 66.330677 422.466775 C 67.986289 423.268594 68.570623 423.04105 70.59415 424.308791 C 72.628497 425.576532 72.574392 425.977442 74.435604 427.537738 C 76.307636 429.0872 75.983006 429.834842 78.071459 430.528307 C 80.14909 431.221772 81.166264 430.419953 82.756951 430.300764 C 84.358458 430.181574 83.298001 430.07322 84.466668 430.07322 C 85.646157 430.07322 86.068176 430.75585 87.453264 430.300764 C 88.838351 429.834842 88.470437 428.166191 90.01784 428.231204 C 91.565243 428.285381 91.294718 430.07322 93.642874 430.528307 C 95.991031 430.994229 97.170519 430.246587 99.410466 430.07322 C 101.650412 429.899854 100.849658 429.661475 102.60266 429.834842 C 104.366483 430.008208 104.582903 430.582484 106.444114 430.75585 C 108.316147 430.929216 107.991517 431.048406 110.079969 430.528307 C 112.157601 430.008208 112.374021 429.954031 114.776282 428.68629 C 117.167723 427.418549 116.637494 427.472726 119.678194 425.457343 C 122.718894 423.44196 124.158087 423.16024 126.939083 420.624758 C 129.709258 418.089276 128.800295 417.623354 130.780537 415.326251 C 132.749959 413.018312 132.966379 413.6576 134.82759 411.403839 C 136.699623 409.160912 136.645518 408.640813 138.247025 406.332875 C 139.848533 404.035772 139.632113 404.436681 141.233621 402.193755 C 142.835128 399.939993 143.094832 399.939993 144.642235 397.350334 C 146.189638 394.760675 146.092249 394.760675 147.423231 391.824284 C 148.754214 388.887892 148.700109 389.061259 149.976987 385.604768 C 151.264685 382.148278 151.794914 380.934714 152.541563 377.998323 C 153.288212 375.061931 152.541563 376.611392 152.974403 373.848367 C 153.396422 371.085342 153.872546 370.792786 154.251281 366.935387 C 154.619195 363.077987 154.413596 362.211155 154.467701 358.407932 C 154.521806 354.60471 154.521806 354.377166 154.467701 351.73333 C 154.413596 349.078659 154.413596 349.652935 154.251281 347.810918 C 154.088966 345.968901 153.612842 346.434823 153.818441 344.354428 C 154.034861 342.284868 154.359491 341.764769 155.106139 339.521843 C 155.852788 337.268081 155.798683 337.333093 156.815857 335.371887 C 157.82221 333.410681 157.93042 333.529871 159.153192 331.687854 C 160.386786 329.845837 160.386786 329.379915 161.717769 327.992985 C 163.048751 326.61689 162.680838 326.844433 164.498765 326.150968 C 166.305872 325.457503 166.522292 325.804235 168.978658 325.22996 C 171.424203 324.655684 172.549587 324.601507 174.31341 323.853865 C 176.066411 323.106223 175.482078 323.106223 176.012306 322.239391 C 176.553356 321.37256 177.083585 321.080004 176.445146 320.397374 C 175.806707 319.703909 175.319763 319.703909 173.458551 319.476366 C 171.586518 319.237987 170.94808 319.530543 168.978658 319.476366 C 166.998416 319.411354 166.890206 319.530543 165.559223 319.237987 C 164.22824 318.956267 165.191309 319.237987 163.643906 318.316979 Z M 163.643906 318.316979 " stroke="#000000" stroke-width="0.333" stroke-opacity="1" stroke-miterlimit="4"/></g><g fill="#ffffff" fill-opacity="1"><g transform="translate(195.725726, 427.894019)"><g><path d="M 27.859375 0.828125 C 23.078125 0.828125 18.9375 -0.265625 15.4375 -2.453125 C 11.945312 -4.640625 9.253906 -7.9375 7.359375 -12.34375 C 5.460938 -16.75 4.515625 -22.195312 4.515625 -28.6875 C 4.515625 -35.226562 5.648438 -40.703125 7.921875 -45.109375 C 10.203125 -49.515625 13.363281 -52.796875 17.40625 -54.953125 C 21.445312 -57.117188 26.132812 -58.203125 31.46875 -58.203125 C 36.96875 -58.203125 41.648438 -57.179688 45.515625 -55.140625 C 49.390625 -53.097656 52.113281 -50.0625 53.6875 -46.03125 L 45.40625 -41.015625 L 44.421875 -41.046875 C 43.242188 -43.609375 41.585938 -45.476562 39.453125 -46.65625 C 37.328125 -47.832031 34.664062 -48.421875 31.46875 -48.421875 C 26.53125 -48.421875 22.75 -46.859375 20.125 -43.734375 C 17.507812 -40.609375 16.203125 -35.59375 16.203125 -28.6875 C 16.203125 -21.75 17.425781 -16.710938 19.875 -13.578125 C 22.320312 -10.441406 25.941406 -8.875 30.734375 -8.875 C 34.867188 -8.875 37.914062 -9.800781 39.875 -11.65625 C 41.832031 -13.507812 42.8125 -16.28125 42.8125 -19.96875 L 42.8125 -22.453125 L 29.234375 -22.453125 L 29.234375 -31.671875 L 54.078125 -31.671875 L 54.078125 0 L 43.25 0 L 43.25 -7.6875 L 42.421875 -7.8125 C 41.242188 -5.0625 39.457031 -2.929688 37.0625 -1.421875 C 34.664062 0.078125 31.597656 0.828125 27.859375 0.828125 Z M 27.859375 0.828125 "/></g></g></g><g fill="#ffffff" fill-opacity="1"><g transform="translate(255.573828, 427.894019)"><g><path d="M 42.78125 -19.1875 L 14.953125 -19.1875 C 15.265625 -15.425781 16.335938 -12.6875 18.171875 -10.96875 C 20.003906 -9.257812 22.503906 -8.40625 25.671875 -8.40625 C 28.148438 -8.40625 30.160156 -8.867188 31.703125 -9.796875 C 33.253906 -10.722656 34.5 -12.128906 35.4375 -14.015625 L 36.265625 -14.015625 L 43.484375 -9.375 C 42.066406 -6.34375 39.929688 -3.882812 37.078125 -2 C 34.234375 -0.113281 30.429688 0.828125 25.671875 0.828125 C 21.191406 0.828125 17.320312 -0.0195312 14.0625 -1.71875 C 10.8125 -3.425781 8.300781 -5.957031 6.53125 -9.3125 C 4.769531 -12.675781 3.890625 -16.78125 3.890625 -21.625 C 3.890625 -26.539062 4.816406 -30.6875 6.671875 -34.0625 C 8.523438 -37.4375 11.035156 -39.953125 14.203125 -41.609375 C 17.367188 -43.273438 20.925781 -44.109375 24.875 -44.109375 C 31 -44.109375 35.691406 -42.484375 38.953125 -39.234375 C 42.210938 -35.992188 43.84375 -31.234375 43.84375 -24.953125 C 43.84375 -22.679688 43.765625 -20.914062 43.609375 -19.65625 Z M 33.4375 -26.21875 C 33.332031 -29.507812 32.566406 -31.90625 31.140625 -33.40625 C 29.710938 -34.914062 27.625 -35.671875 24.875 -35.671875 C 19.382812 -35.671875 16.15625 -32.519531 15.1875 -26.21875 Z M 33.4375 -26.21875 "/></g></g></g><g fill="#ffffff" fill-opacity="1"><g transform="translate(302.628175, 427.894019)"><g><path d="M 25.15625 0.828125 C 20.914062 0.828125 17.191406 -0.0390625 13.984375 -1.78125 C 10.785156 -3.519531 8.300781 -6.070312 6.53125 -9.4375 C 4.769531 -12.800781 3.890625 -16.863281 3.890625 -21.625 C 3.890625 -26.382812 4.769531 -30.453125 6.53125 -33.828125 C 8.300781 -37.203125 10.785156 -39.757812 13.984375 -41.5 C 17.191406 -43.238281 20.914062 -44.109375 25.15625 -44.109375 C 29.394531 -44.109375 33.113281 -43.238281 36.3125 -41.5 C 39.519531 -39.757812 42.015625 -37.203125 43.796875 -33.828125 C 45.578125 -30.453125 46.46875 -26.382812 46.46875 -21.625 C 46.46875 -16.863281 45.578125 -12.800781 43.796875 -9.4375 C 42.015625 -6.070312 39.519531 -3.519531 36.3125 -1.78125 C 33.113281 -0.0390625 29.394531 0.828125 25.15625 0.828125 Z M 25.15625 -8.40625 C 31.882812 -8.40625 35.25 -12.8125 35.25 -21.625 C 35.25 -26.207031 34.382812 -29.5625 32.65625 -31.6875 C 30.925781 -33.820312 28.425781 -34.890625 25.15625 -34.890625 C 18.4375 -34.890625 15.078125 -30.46875 15.078125 -21.625 C 15.078125 -12.8125 18.4375 -8.40625 25.15625 -8.40625 Z M 25.15625 -8.40625 "/></g></g></g><g fill="#ffffff" fill-opacity="1"><g transform="translate(352.939816, 427.894019)"><g><path d="M 25.4375 0.828125 C 21.457031 0.828125 17.914062 0.335938 14.8125 -0.640625 C 11.71875 -1.628906 9.132812 -2.921875 7.0625 -4.515625 C 5 -6.109375 3.414062 -7.859375 2.3125 -9.765625 L 8.5625 -17.390625 L 9.53125 -17.390625 C 11.257812 -14.828125 13.453125 -12.785156 16.109375 -11.265625 C 18.765625 -9.742188 21.875 -8.984375 25.4375 -8.984375 C 28.46875 -8.984375 30.753906 -9.625 32.296875 -10.90625 C 33.835938 -12.1875 34.609375 -13.953125 34.609375 -16.203125 C 34.609375 -17.566406 34.359375 -18.707031 33.859375 -19.625 C 33.367188 -20.539062 32.546875 -21.320312 31.390625 -21.96875 C 30.242188 -22.625 28.6875 -23.191406 26.71875 -23.671875 L 19.34375 -25.359375 C 14.1875 -26.535156 10.347656 -28.488281 7.828125 -31.21875 C 5.304688 -33.957031 4.046875 -37.507812 4.046875 -41.875 C 4.046875 -45.113281 4.851562 -47.960938 6.46875 -50.421875 C 8.09375 -52.890625 10.453125 -54.800781 13.546875 -56.15625 C 16.648438 -57.519531 20.363281 -58.203125 24.6875 -58.203125 C 29.101562 -58.203125 32.890625 -57.617188 36.046875 -56.453125 C 39.203125 -55.285156 41.863281 -53.5 44.03125 -51.09375 L 38.421875 -43.40625 L 37.4375 -43.40625 C 35.8125 -45.101562 33.953125 -46.375 31.859375 -47.21875 C 29.773438 -48.070312 27.382812 -48.5 24.6875 -48.5 C 21.570312 -48.5 19.203125 -47.953125 17.578125 -46.859375 C 15.960938 -45.765625 15.15625 -44.25 15.15625 -42.3125 C 15.15625 -40.5 15.722656 -39.054688 16.859375 -37.984375 C 17.992188 -36.910156 19.960938 -36.078125 22.765625 -35.484375 L 30.296875 -33.90625 C 35.867188 -32.726562 39.910156 -30.734375 42.421875 -27.921875 C 44.929688 -25.109375 46.1875 -21.441406 46.1875 -16.921875 C 46.1875 -13.328125 45.414062 -10.203125 43.875 -7.546875 C 42.332031 -4.898438 40.003906 -2.84375 36.890625 -1.375 C 33.773438 0.09375 29.957031 0.828125 25.4375 0.828125 Z M 25.4375 0.828125 "/></g></g></g><g fill="#ffffff" fill-opacity="1"><g transform="translate(402.231096, 427.894019)"><g><path d="M 29.859375 -10.328125 L 32.6875 -2.28125 C 31.507812 -1.3125 30.03125 -0.550781 28.25 0 C 26.476562 0.550781 24.46875 0.828125 22.21875 0.828125 C 17.53125 0.828125 13.96875 -0.445312 11.53125 -3 C 9.101562 -5.550781 7.890625 -9.257812 7.890625 -14.125 L 7.890625 -34.6875 L 1.296875 -34.6875 L 1.296875 -43.328125 L 7.890625 -43.328125 L 7.890625 -51.765625 L 18.765625 -53.53125 L 18.765625 -43.328125 L 31.046875 -43.328125 L 31.046875 -34.6875 L 18.765625 -34.6875 L 18.765625 -14.90625 C 18.765625 -12.757812 19.207031 -11.195312 20.09375 -10.21875 C 20.976562 -9.238281 22.273438 -8.75 23.984375 -8.75 C 25.921875 -8.75 27.609375 -9.273438 29.046875 -10.328125 Z M 29.859375 -10.328125 "/></g></g></g><g fill="#ffffff" fill-opacity="1"><g transform="translate(435.863771, 427.894019)"><g><path d="M 9.578125 18.359375 C 7.722656 18.359375 6.039062 18.210938 4.53125 17.921875 C 3.03125 17.640625 1.804688 17.265625 0.859375 16.796875 L 2.59375 8 L 3.296875 7.765625 C 3.953125 8.109375 4.765625 8.382812 5.734375 8.59375 C 6.703125 8.800781 7.695312 8.90625 8.71875 8.90625 C 10.46875 8.90625 11.921875 8.675781 13.078125 8.21875 C 14.242188 7.757812 15.234375 7 16.046875 5.9375 C 16.859375 4.882812 17.578125 3.414062 18.203125 1.53125 L 0.9375 -43.28125 L 12.328125 -43.28125 L 23.078125 -13.1875 L 24.015625 -13.1875 L 34.5 -43.28125 L 45.5625 -43.28125 L 28.171875 2.703125 C 26.785156 6.421875 25.257812 9.410156 23.59375 11.671875 C 21.9375 13.941406 19.976562 15.625 17.71875 16.71875 C 15.457031 17.8125 12.742188 18.359375 9.578125 18.359375 Z M 9.578125 18.359375 "/></g></g></g><g fill="#ffffff" fill-opacity="1"><g transform="translate(482.329436, 427.894019)"><g><path d="M 17.96875 0.828125 C 14.070312 0.828125 11.097656 -0.222656 9.046875 -2.328125 C 6.992188 -4.441406 5.96875 -7.644531 5.96875 -11.9375 L 5.96875 -60.671875 L 16.84375 -60.671875 L 16.84375 -12.359375 C 16.84375 -9.722656 17.941406 -8.40625 20.140625 -8.40625 C 20.765625 -8.40625 21.429688 -8.507812 22.140625 -8.71875 L 22.6875 -8.5625 L 23.671875 -0.203125 C 23.066406 0.117188 22.265625 0.367188 21.265625 0.546875 C 20.273438 0.734375 19.175781 0.828125 17.96875 0.828125 Z M 17.96875 0.828125 "/></g></g></g><g fill="#ffffff" fill-opacity="1"><g transform="translate(507.210544, 427.894019)"><g><path d="M 42.78125 -19.1875 L 14.953125 -19.1875 C 15.265625 -15.425781 16.335938 -12.6875 18.171875 -10.96875 C 20.003906 -9.257812 22.503906 -8.40625 25.671875 -8.40625 C 28.148438 -8.40625 30.160156 -8.867188 31.703125 -9.796875 C 33.253906 -10.722656 34.5 -12.128906 35.4375 -14.015625 L 36.265625 -14.015625 L 43.484375 -9.375 C 42.066406 -6.34375 39.929688 -3.882812 37.078125 -2 C 34.234375 -0.113281 30.429688 0.828125 25.671875 0.828125 C 21.191406 0.828125 17.320312 -0.0195312 14.0625 -1.71875 C 10.8125 -3.425781 8.300781 -5.957031 6.53125 -9.3125 C 4.769531 -12.675781 3.890625 -16.78125 3.890625 -21.625 C 3.890625 -26.539062 4.816406 -30.6875 6.671875 -34.0625 C 8.523438 -37.4375 11.035156 -39.953125 14.203125 -41.609375 C 17.367188 -43.273438 20.925781 -44.109375 24.875 -44.109375 C 31 -44.109375 35.691406 -42.484375 38.953125 -39.234375 C 42.210938 -35.992188 43.84375 -31.234375 43.84375 -24.953125 C 43.84375 -22.679688 43.765625 -20.914062 43.609375 -19.65625 Z M 33.4375 -26.21875 C 33.332031 -29.507812 32.566406 -31.90625 31.140625 -33.40625 C 29.710938 -34.914062 27.625 -35.671875 24.875 -35.671875 C 19.382812 -35.671875 16.15625 -32.519531 15.1875 -26.21875 Z M 33.4375 -26.21875 "/></g></g></g></svg>